<?xml version="1.0" ?><!DOCTYPE svg  PUBLIC '-//W3C//DTD SVG 1.1//EN'  'http://www.w3.org/Graphics/SVG/1.1/DTD/svg11.dtd'><svg enable-background="new 0 0 128 128" height="128px" id="Layer_1" version="1.1" viewBox="0 0 128 128" width="128px" xml:space="preserve" xmlns="http://www.w3.org/2000/svg" xmlns:xlink="http://www.w3.org/1999/xlink"><g><path d="M100.806,56.5L39.92,21.366c-7.621-4.4-13.92-0.8-13.92,8v70.269c0,8.8,6.291,12.4,13.912,8l60.91-35.134   C108.443,68.1,108.427,60.9,100.806,56.5z M97.822,67.304l-60.908,35.133c-1.621,0.936-2.682,1.075-3.17,1.075   c-1.574,0-1.744-2.711-1.744-3.877V29.366c0-1.166,0.17-3.878,1.75-3.878c0.489,0,1.551,0.14,3.17,1.074l60.888,35.135   c1.997,1.152,2.723,2.313,2.723,2.812C100.53,65.004,99.809,66.157,97.822,67.304z" fill="#D5DD5A"/></g></svg>