<svg viewBox="0 0 6.82666 6.82666" xmlns="http://www.w3.org/2000/svg" xmlns:xlink="http://www.w3.org/1999/xlink">
  <defs>
    <style type="text/css">
      <![CDATA[
        .fil1 {fill:none}
        .fil0 {fill:black;fill-rule:nonzero}
      ]]>
    </style>
  </defs>
  <g id="Layer_x0020_1">
    <path class="fil0" d="M0.853331 0.773331l3.54518 0c0.0441811,0 0.08,0.0358189 0.08,0.08l0 3.54518c0,0.0441811 -0.0358189,0.08 -0.08,0.08l-3.54518 0c-0.0441811,0 -0.08,-0.0358189 -0.08,-0.08l0 -3.54518c0,-0.0441811 0.0358189,-0.08 0.08,-0.08zm3.46518 0.16l-3.38518 0 0 3.38518 3.38518 0 0 -3.38518z"/>
    <path class="fil0" d="M2.62592 2.54592l3.34741 0c0.0441811,0 0.08,0.0358189 0.08,0.08l0 3.34741c0,0.0441811 -0.0358189,0.08 -0.08,0.08l-3.34741 0c-0.0441811,0 -0.08,-0.0358189 -0.08,-0.08l0 -3.34741c0,-0.0441811 0.0358189,-0.08 0.08,-0.08zm3.26741 0.16l-3.18741 0 0 3.18741 3.18741 0 0 -3.18741z"/>
    <path class="fil0" d="M0.909894 0.796768c-0.0312362,-0.0312362 -0.0818898,-0.0312362 -0.113126,0 -0.0312362,0.0312362 -0.0312362,0.0818898 0,0.113126l1.77274 1.77274c0.0312362,0.0312362 0.0818898,0.0312362 0.113126,0 0.0312362,-0.0312362 0.0312362,-0.0818898 0,-0.113126l-1.77274 -1.77274zm3.5445 3.5445c-0.0312362,-0.0312362 -0.0818898,-0.0312362 -0.113126,0 -0.0312362,0.0312362 -0.0312362,0.0818898 0,0.113126l1.5755 1.5755c0.0312362,0.0312362 0.0818898,0.0312362 0.113126,0 0.0312362,-0.0312362 0.0312362,-0.0818898 0,-0.113126l-1.5755 -1.5755z"/>
    <path class="fil0" d="M4.4582 0.800205c-0.0293386,-0.0329646 -0.0798504,-0.0359016 -0.112815,-0.00656299 -0.0329646,0.0293386 -0.0359016,0.0798504 -0.00656299,0.112815l1.57482 1.77259c0.0293386,0.0329646 0.0798504,0.0359016 0.112815,0.00656299 0.0329646,-0.0293386 0.0359016,-0.0798504 0.00656299,-0.112815l-1.57482 -1.77259z"/>
    <path class="fil0" d="M0.906457 4.33882c-0.0329646,-0.0293386 -0.0834764,-0.0264016 -0.112815,0.00656299 -0.0293386,0.0329646 -0.0264016,0.0834764 0.00656299,0.112815l1.77259 1.57482c0.0329646,0.0293386 0.0834764,0.0264016 0.112815,-0.00656299 0.0293386,-0.0329646 0.0264016,-0.0834764 -0.00656299,-0.112815l-1.77259 -1.57482z"/>
  </g>
  <rect class="fil1" height="6.82666" width="6.82666"/>
</svg>
